<?xml version="1.0" encoding="UTF-8"?>
<svg xmlns="http://www.w3.org/2000/svg" xmlns:xlink="http://www.w3.org/1999/xlink" viewBox="0 0 24 24" width="24px" height="24px">
<g id="surface128516938">
<path style=" stroke:none;fill-rule:nonzero;fill:rgb(100%,100%,100%);fill-opacity:1;" d="M 20.179688 6.652344 C 21.011719 7.476562 21.121094 8.789062 21.121094 12 C 21.121094 15.210938 21.011719 16.523438 20.179688 17.347656 C 19.347656 18.175781 18.484375 18.238281 12 18.238281 C 5.515625 18.238281 4.652344 18.175781 3.820312 17.347656 C 2.988281 16.523438 2.878906 15.210938 2.878906 12 C 2.878906 8.789062 2.988281 7.476562 3.820312 6.652344 C 4.652344 5.824219 5.515625 5.761719 12 5.761719 C 18.484375 5.761719 19.347656 5.824219 20.179688 6.652344 Z M 10.445312 14.847656 L 15.109375 12.144531 L 10.445312 9.484375 Z M 10.445312 14.847656 "/>
</g>
</svg>
