<?xml version="1.0" encoding="UTF-8"?>
<svg xmlns="http://www.w3.org/2000/svg" xmlns:xlink="http://www.w3.org/1999/xlink" viewBox="0 0 24 24" width="24px" height="24px">
<g id="surface128736476">
<path style=" stroke:none;fill-rule:nonzero;fill:rgb(100%,100%,100%);fill-opacity:1;" d="M 12 0.960938 C 5.910156 0.960938 0.960938 5.910156 0.960938 12 C 0.960938 18.089844 5.910156 23.039062 12 23.039062 C 18.089844 23.039062 23.039062 18.089844 23.039062 12 C 23.039062 5.910156 18.089844 0.960938 12 0.960938 Z M 12 1.921875 C 17.574219 1.921875 22.078125 6.425781 22.078125 12 C 22.078125 17.574219 17.574219 22.078125 12 22.078125 C 10.980469 22.078125 9.996094 21.925781 9.070312 21.648438 C 9.484375 20.957031 10.015625 19.96875 10.226562 19.15625 C 10.355469 18.671875 10.871094 16.703125 10.871094 16.703125 C 11.207031 17.34375 12.191406 17.886719 13.234375 17.886719 C 16.347656 17.886719 18.589844 15.023438 18.589844 11.46875 C 18.589844 8.058594 15.808594 5.507812 12.230469 5.507812 C 7.773438 5.507812 5.410156 8.496094 5.410156 11.75 C 5.410156 13.265625 6.214844 15.148438 7.503906 15.75 C 7.699219 15.839844 7.804688 15.800781 7.851562 15.613281 C 7.882812 15.46875 8.058594 14.769531 8.136719 14.441406 C 8.160156 14.339844 8.148438 14.25 8.066406 14.144531 C 7.636719 13.628906 7.296875 12.675781 7.296875 11.789062 C 7.296875 9.515625 9.019531 7.3125 11.957031 7.3125 C 14.492188 7.3125 16.265625 9.039062 16.265625 11.511719 C 16.265625 14.300781 14.855469 16.238281 13.023438 16.238281 C 12.011719 16.238281 11.25 15.398438 11.496094 14.371094 C 11.785156 13.144531 12.351562 11.820312 12.351562 10.933594 C 12.351562 10.144531 11.925781 9.480469 11.042969 9.480469 C 10.007812 9.480469 9.175781 10.550781 9.175781 11.988281 C 9.175781 12.902344 9.484375 13.519531 9.484375 13.519531 C 9.484375 13.519531 8.460938 17.84375 8.273438 18.648438 C 8.085938 19.453125 8.136719 20.539062 8.214844 21.34375 C 4.523438 19.847656 1.921875 16.234375 1.921875 12 C 1.921875 6.425781 6.425781 1.921875 12 1.921875 Z M 12 1.921875 "/>
</g>
</svg>
